<svg width="79" height="79" viewBox="0 0 79 79" fill="none" xmlns="http://www.w3.org/2000/svg">
<g filter="url(#filter0_d_1034_183)">
<circle cx="37.5" cy="37.5" r="27.5" fill="#89B8A3"/>
</g>
<path d="M37.19 41.985C37.16 41.985 37.125 41.98 37.095 41.965C36.97 41.91 36.91 41.765 36.96 41.64C38.79 37.305 38.67 32.515 36.625 28.5C36.565 28.375 36.61 28.225 36.735 28.165C36.855 28.105 37.01 28.15 37.07 28.275C39.18 32.425 39.305 37.365 37.42 41.835C37.38 41.93 37.285 41.99 37.19 41.99V41.985ZM38.195 41.92C38.125 41.92 38.05 41.89 38.005 41.83C37.915 41.725 37.93 41.565 38.035 41.48C40.09 39.77 41.195 37.525 41.215 34.98C41.215 34.845 41.33 34.73 41.465 34.73C41.605 34.73 41.715 34.845 41.715 34.98C41.69 37.635 40.495 40.075 38.355 41.855C38.31 41.895 38.25 41.915 38.195 41.915V41.92ZM40.635 41.985C40.545 41.985 40.455 41.935 40.41 41.85C40.35 41.725 40.395 41.575 40.52 41.515C41.36 41.09 42.145 40.565 42.845 39.955C44.88 38.185 46.24 36.635 46.715 34.39C46.745 34.255 46.875 34.17 47.01 34.195C47.145 34.225 47.23 34.355 47.205 34.49C46.645 37.135 44.91 38.825 43.175 40.33C42.445 40.965 41.625 41.515 40.745 41.955C40.71 41.975 40.67 41.98 40.635 41.98V41.985Z" fill="white"/>
<path d="M35.185 27.5899C34.6 27.0749 34.27 26.2599 34.375 25.5049C34.48 24.7499 35.035 24.0849 35.755 23.9099C36.475 23.7349 37.325 24.0749 37.735 24.7349C38.005 25.1699 38.085 25.6999 38.04 26.1999C37.98 26.9649 37.605 27.9049 36.975 28.3399C36.64 28.5749 35.54 27.8999 35.185 27.5899Z" fill="white"/>
<path d="M36.785 28.6351C36.09 28.6351 35.03 27.7851 35.02 27.7751C34.365 27.2001 34.01 26.2901 34.125 25.4651C34.245 24.6001 34.89 23.8601 35.69 23.6601C36.53 23.4501 37.48 23.8501 37.94 24.6001C38.285 25.1601 38.32 25.7851 38.285 26.2151C38.22 27.0151 37.835 28.0401 37.11 28.5401C37.015 28.6051 36.905 28.6301 36.78 28.6301L36.785 28.6351ZM35.35 27.4001C35.785 27.7801 36.655 28.2051 36.835 28.1301C37.415 27.7251 37.74 26.8351 37.79 26.1751C37.82 25.8201 37.795 25.3101 37.52 24.8651C37.17 24.3051 36.435 23.9951 35.81 24.1501C35.2 24.3001 34.71 24.8701 34.62 25.5351C34.53 26.2001 34.815 26.9301 35.35 27.4001Z" fill="white"/>
<path d="M40.18 33.6151C39.83 32.9201 39.83 32.0401 40.21 31.3751C40.59 30.7101 41.355 30.3101 42.09 30.4151C42.825 30.5201 43.48 31.1551 43.615 31.9251C43.7 32.4301 43.575 32.9501 43.35 33.3951C43.005 34.0801 42.305 34.8101 41.555 34.9801C41.155 35.0701 40.39 34.0351 40.18 33.6151Z" fill="white"/>
<path d="M41.51 35.235C40.805 35.235 39.97 33.74 39.96 33.725C39.57 32.945 39.585 31.97 40 31.25C40.435 30.495 41.315 30.05 42.13 30.165C42.985 30.29 43.715 31.01 43.865 31.88C43.975 32.53 43.77 33.125 43.575 33.505C43.215 34.22 42.47 35.025 41.615 35.22C41.58 35.23 41.545 35.23 41.51 35.23V35.235ZM41.86 30.645C41.3 30.645 40.735 30.975 40.435 31.495C40.1 32.075 40.09 32.86 40.41 33.495C40.67 34.01 41.295 34.725 41.51 34.73C42.2 34.575 42.835 33.87 43.13 33.28C43.29 32.965 43.46 32.48 43.375 31.965C43.265 31.315 42.7 30.75 42.06 30.66C41.995 30.65 41.925 30.645 41.86 30.645ZM35.895 41.985C35.83 41.985 35.765 41.96 35.72 41.91C33.94 40.135 33.015 37.91 33.035 35.475C33.035 35.34 33.15 35.225 33.285 35.225C33.425 35.225 33.535 35.34 33.535 35.475C33.515 37.77 34.39 39.87 36.07 41.55C36.17 41.65 36.17 41.805 36.07 41.905C36.02 41.955 35.955 41.98 35.895 41.98V41.985Z" fill="white"/>
<path d="M34.6 34.1351C34.96 33.4451 34.98 32.5651 34.61 31.8951C34.24 31.2251 33.49 30.8051 32.75 30.9001C32.01 30.9951 31.345 31.6151 31.195 32.3801C31.1 32.8801 31.215 33.4051 31.43 33.8551C31.76 34.5451 32.445 35.2901 33.19 35.4751C33.59 35.5751 34.37 34.5501 34.59 34.1351H34.6Z" fill="white"/>
<path d="M33.25 35.7349C33.21 35.7349 33.175 35.7349 33.135 35.7199C32.285 35.5099 31.555 34.6899 31.205 33.9699C31.02 33.5849 30.825 32.9849 30.945 32.3399C31.11 31.4749 31.855 30.7649 32.71 30.6549C33.53 30.5499 34.4 31.0149 34.82 31.7799C35.22 32.5099 35.22 33.4799 34.81 34.2549C34.81 34.2549 33.945 35.7349 33.24 35.7349H33.25ZM32.955 31.1399C32.895 31.1399 32.84 31.1399 32.78 31.1499C32.14 31.2299 31.565 31.7799 31.44 32.4299C31.34 32.9449 31.505 33.4299 31.655 33.7499C31.94 34.3449 32.56 35.0649 33.25 35.2349C33.445 35.2299 34.105 34.5299 34.37 34.0199C34.7 33.3899 34.705 32.6049 34.385 32.0199C34.09 31.4849 33.52 31.1399 32.95 31.1399H32.955ZM34.375 41.9849C34.335 41.9849 34.29 41.9749 34.25 41.9549C30.645 39.9149 28.295 37.0199 27.81 34.0199C27.79 33.8849 27.88 33.7549 28.015 33.7349C28.15 33.7149 28.28 33.8049 28.3 33.9399C28.76 36.7899 31.015 39.5549 34.49 41.5199C34.61 41.5899 34.655 41.7399 34.585 41.8599C34.54 41.9399 34.455 41.9849 34.365 41.9849H34.375Z" fill="white"/>
<path d="M29.36 32.0801C29.655 31.1701 29.495 30.1001 28.91 29.3651C28.325 28.6301 27.325 28.2801 26.455 28.5451C25.58 28.8101 24.9 29.7001 24.88 30.6601C24.87 31.2851 25.115 31.8951 25.475 32.4001C26.02 33.1701 27 33.9251 27.945 33.9951C28.445 34.0301 29.185 32.6301 29.365 32.0801H29.36Z" fill="white"/>
<path d="M27.96 34.2452C27.96 34.2452 27.935 34.2452 27.925 34.2452C26.87 34.1702 25.83 33.3402 25.27 32.5452C24.97 32.1202 24.615 31.4502 24.63 30.6602C24.65 29.6002 25.385 28.6102 26.38 28.3102C27.33 28.0202 28.45 28.3952 29.105 29.2152C29.73 30.0002 29.925 31.1602 29.6 32.1602C29.51 32.4402 28.74 34.2452 27.96 34.2452ZM27.05 28.7102C26.87 28.7102 26.695 28.7352 26.525 28.7852C25.745 29.0202 25.145 29.8302 25.13 30.6652C25.12 31.3202 25.42 31.8902 25.675 32.2552C26.15 32.9252 27.07 33.6802 27.955 33.7452H27.96C28.205 33.7452 28.88 32.7302 29.115 32.0052C29.39 31.1552 29.23 30.1852 28.705 29.5252C28.295 29.0102 27.66 28.7102 27.04 28.7102H27.05Z" fill="white"/>
<path d="M45.66 33.0648C45.31 32.3698 45.31 31.4898 45.69 30.8248C46.07 30.1598 46.835 29.7598 47.57 29.8648C48.305 29.9698 48.96 30.6048 49.095 31.3748C49.18 31.8798 49.055 32.3998 48.83 32.8448C48.485 33.5298 47.785 34.2598 47.035 34.4298C46.635 34.5198 45.87 33.4848 45.66 33.0648Z" fill="white"/>
<path d="M46.985 34.69C46.28 34.69 45.445 33.2 45.435 33.18C45.045 32.4 45.06 31.425 45.475 30.705C45.91 29.95 46.785 29.505 47.605 29.62C48.46 29.745 49.19 30.465 49.34 31.335C49.45 31.985 49.245 32.58 49.05 32.96C48.69 33.675 47.945 34.48 47.09 34.675C47.055 34.685 47.02 34.685 46.985 34.685V34.69ZM47.335 30.1C46.775 30.1 46.21 30.43 45.91 30.95C45.575 31.53 45.565 32.315 45.885 32.95C46.14 33.46 46.785 34.185 46.985 34.185C47.675 34.03 48.31 33.325 48.605 32.735C48.765 32.42 48.935 31.935 48.85 31.42C48.74 30.77 48.175 30.205 47.535 30.115C47.47 30.105 47.4 30.1 47.335 30.1Z" fill="white"/>
<path d="M40.795 41.7349H33.69C32.71 41.7349 31.82 42.2899 31.375 43.1599C30.93 44.0299 30.67 45.0499 30.67 46.1149C30.67 48.5549 32 50.6849 33.975 51.8149C34.355 52.0349 34.795 52.1399 35.235 52.1399H39.25C39.69 52.1399 40.125 52.0349 40.51 51.8149C42.485 50.6799 43.815 48.5549 43.815 46.1149C43.815 45.0499 43.56 44.0449 43.11 43.1599C42.66 42.2749 41.775 41.7349 40.795 41.7349Z" fill="white"/>
<path d="M39.25 52.3899H35.235C34.735 52.3899 34.26 52.2649 33.85 52.0349C31.735 50.8199 30.42 48.5499 30.42 46.1149C30.42 45.0349 30.665 44.0049 31.155 43.0449C31.645 42.0799 32.615 41.4849 33.69 41.4849H40.795C41.87 41.4849 42.84 42.0849 43.33 43.0449C43.815 44.0049 44.065 45.0349 44.065 46.1149C44.065 48.5499 42.75 50.8199 40.635 52.0349C40.23 52.2699 39.75 52.3899 39.255 52.3899H39.25ZM33.69 41.9849C32.805 41.9849 32.005 42.4799 31.6 43.2749C31.15 44.1649 30.92 45.1199 30.92 46.1199C30.92 48.3749 32.14 50.4799 34.1 51.6049C34.43 51.7949 34.825 51.8949 35.235 51.8949H39.25C39.66 51.8949 40.05 51.7949 40.385 51.6049C42.345 50.4799 43.565 48.3749 43.565 46.1199C43.565 45.1199 43.335 44.1649 42.885 43.2749C42.48 42.4799 41.68 41.9849 40.795 41.9849H33.69Z" fill="white"/>
<defs>
<filter id="filter0_d_1034_183" x="0" y="0" width="79" height="79" filterUnits="userSpaceOnUse" color-interpolation-filters="sRGB">
<feFlood flood-opacity="0" result="BackgroundImageFix"/>
<feColorMatrix in="SourceAlpha" type="matrix" values="0 0 0 0 0 0 0 0 0 0 0 0 0 0 0 0 0 0 127 0" result="hardAlpha"/>
<feOffset dx="2" dy="2"/>
<feGaussianBlur stdDeviation="6"/>
<feComposite in2="hardAlpha" operator="out"/>
<feColorMatrix type="matrix" values="0 0 0 0 0 0 0 0 0 0 0 0 0 0 0 0 0 0 0.16 0"/>
<feBlend mode="normal" in2="BackgroundImageFix" result="effect1_dropShadow_1034_183"/>
<feBlend mode="normal" in="SourceGraphic" in2="effect1_dropShadow_1034_183" result="shape"/>
</filter>
</defs>
</svg>
