<svg width="79" height="79" viewBox="0 0 79 79" fill="none" xmlns="http://www.w3.org/2000/svg">
<g filter="url(#filter0_d_1035_213)">
<circle cx="37.5" cy="37.5" r="27.5" fill="#89B8A3"/>
</g>
<g clip-path="url(#clip0_1035_213)">
<path fill-rule="evenodd" clip-rule="evenodd" d="M36.211 25.1771C36.3117 25.9488 36.511 26.8921 36.8427 28.0668C37.619 30.8161 38.2097 33.5641 37.6853 36.7058C37.4597 38.0594 37.5133 39.3378 37.659 40.3814C37.697 40.6548 37.95 40.8458 38.2233 40.8074C38.4967 40.7694 38.6877 40.5164 38.6493 40.2431C38.5157 39.2854 38.4647 38.1124 38.6717 36.8704C39.2223 33.5708 38.6203 30.6824 37.805 27.7951C37.053 25.1318 36.9967 23.8034 37.2733 22.9284C37.3853 22.5734 37.2257 22.3771 37.1813 22.3294C37.101 22.2421 37.0027 22.1908 36.889 22.1728C36.7953 22.1578 36.653 22.1558 36.498 22.2711C36.433 22.3194 36.2283 22.5791 36.0017 23.0418C35.302 24.4711 33.938 28.1628 34.5163 31.7274C34.858 33.8331 34.9433 35.0464 34.865 35.9438C34.841 36.2188 35.0447 36.4614 35.3197 36.4854C35.5947 36.5094 35.8373 36.3058 35.8613 36.0308C35.944 35.0811 35.865 33.7958 35.5033 31.5674C35.1257 29.2378 35.644 26.8501 36.211 25.1771ZM32.0747 31.3264C32.1683 32.6398 32.5107 33.9314 33.2353 36.2158C33.7157 37.7301 33.696 39.1624 33.5463 40.2441C33.5087 40.5174 33.7 40.7698 33.9733 40.8078C34.2467 40.8454 34.4993 40.6541 34.537 40.3808C34.7027 39.1814 34.7213 37.5928 34.1887 35.9134C33.1603 32.6718 32.9287 31.5454 33.1003 29.2904C33.128 28.9248 33.075 28.7078 33.0277 28.6141C32.9613 28.4821 32.8687 28.4078 32.7797 28.3634C32.6223 28.2848 32.2817 28.2341 32.0117 28.6271C31.7783 28.9668 31.3617 30.0594 31.0027 31.4544C30.4777 33.4944 30.0603 36.1878 30.419 38.0161C30.6057 38.9674 30.706 39.7191 30.7393 40.3391C30.754 40.6148 30.9897 40.8264 31.2653 40.8118C31.5407 40.7971 31.7527 40.5611 31.738 40.2858C31.7027 39.6288 31.5983 38.8318 31.4003 37.8234C31.0653 36.1174 31.4813 33.6071 31.971 31.7038C32.0033 31.5781 32.0383 31.4518 32.0747 31.3264ZM41.1933 31.4554C41.292 32.6704 41.6273 33.8814 42.3247 35.9941C42.8663 37.6351 42.7537 39.1731 42.5487 40.2158C42.4953 40.4868 42.672 40.7498 42.9427 40.8031C43.2133 40.8561 43.4763 40.6798 43.5297 40.4088C43.7593 39.2408 43.8807 37.5188 43.2743 35.6808C42.2727 32.6454 42.0463 31.5911 42.213 29.4798C42.2413 29.1224 42.1857 28.9111 42.1377 28.8198C42.07 28.6908 41.9773 28.6181 41.8867 28.5744C41.7307 28.4994 41.402 28.4531 41.1343 28.8278C40.905 29.1488 40.4953 30.1791 40.1427 31.4958C39.628 33.4184 39.22 35.9568 39.5717 37.6798C39.8043 38.8191 39.8997 39.6508 39.8957 40.3094C39.894 40.5854 40.117 40.8108 40.3927 40.8124C40.6687 40.8141 40.894 40.5914 40.8957 40.3154C40.9 39.6051 40.8023 38.7078 40.5517 37.4798C40.2257 35.8838 40.6317 33.5351 41.1087 31.7544C41.1353 31.6548 41.1637 31.5548 41.1933 31.4554Z" fill="white"/>
<path fill-rule="evenodd" clip-rule="evenodd" d="M43.1857 51.1938C43.1857 51.1938 44.121 43.5702 44.4214 41.1212C44.462 40.7895 44.3587 40.4562 44.137 40.2062C43.9157 39.9558 43.5977 39.8125 43.2634 39.8125H30.7367C30.4024 39.8125 30.0844 39.9558 29.863 40.2062C29.6414 40.4562 29.538 40.7895 29.5787 41.1212C29.879 43.5702 30.8144 51.1938 30.8144 51.1938C30.848 51.4678 31.0977 51.6628 31.3717 51.6292C31.6457 51.5958 31.8407 51.3462 31.807 51.0722C31.807 51.0722 30.8717 43.4485 30.5714 40.9995C30.5654 40.9522 30.5804 40.9045 30.6117 40.8688C30.6434 40.8328 30.689 40.8125 30.7367 40.8125H43.2634C43.311 40.8125 43.3567 40.8328 43.3884 40.8688C43.4197 40.9045 43.4347 40.9522 43.4287 40.9995L42.193 51.0722C42.1594 51.3462 42.3544 51.5958 42.6284 51.6292C42.9024 51.6628 43.152 51.4678 43.1857 51.1938Z" fill="white"/>
<path fill-rule="evenodd" clip-rule="evenodd" d="M34.0557 44.2886H43.5903C43.8663 44.2886 44.0903 44.0646 44.0903 43.7886C44.0903 43.5126 43.8663 43.2886 43.5903 43.2886H34.0557C33.7797 43.2886 33.5557 43.5126 33.5557 43.7886C33.5557 44.0646 33.7797 44.2886 34.0557 44.2886ZM30.4097 44.2886H32.0537C32.3297 44.2886 32.5537 44.0646 32.5537 43.7886C32.5537 43.5126 32.3297 43.2886 32.0537 43.2886H30.4097C30.1337 43.2886 29.9097 43.5126 29.9097 43.7886C29.9097 44.0646 30.1337 44.2886 30.4097 44.2886ZM44.71 52.2159C44.8467 51.8572 44.7987 51.4542 44.5807 51.1379C44.363 50.8219 44.0037 50.6332 43.62 50.6332H30.38C29.9963 50.6332 29.637 50.8219 29.4193 51.1379C29.2013 51.4542 29.1533 51.8572 29.29 52.2159C29.3737 52.4346 29.4613 52.6642 29.539 52.8682C29.761 53.4492 30.3183 53.8332 30.9403 53.8332C33.256 53.8332 40.744 53.8332 43.0597 53.8332C43.6817 53.8332 44.239 53.4492 44.461 52.8682C44.5387 52.6642 44.6263 52.4346 44.71 52.2159ZM43.7757 51.8592L43.5267 52.5116C43.4527 52.7052 43.267 52.8332 43.0597 52.8332C40.744 52.8332 33.256 52.8332 30.9403 52.8332C30.733 52.8332 30.5473 52.7052 30.4733 52.5116L30.2243 51.8592C30.2047 51.8079 30.2117 51.7502 30.2427 51.7052C30.274 51.6602 30.3253 51.6332 30.38 51.6332H43.62C43.6747 51.6332 43.726 51.6602 43.7573 51.7052C43.7883 51.7502 43.7953 51.8079 43.7757 51.8592Z" fill="white"/>
</g>
<defs>
<filter id="filter0_d_1035_213" x="0" y="0" width="79" height="79" filterUnits="userSpaceOnUse" color-interpolation-filters="sRGB">
<feFlood flood-opacity="0" result="BackgroundImageFix"/>
<feColorMatrix in="SourceAlpha" type="matrix" values="0 0 0 0 0 0 0 0 0 0 0 0 0 0 0 0 0 0 127 0" result="hardAlpha"/>
<feOffset dx="2" dy="2"/>
<feGaussianBlur stdDeviation="6"/>
<feComposite in2="hardAlpha" operator="out"/>
<feColorMatrix type="matrix" values="0 0 0 0 0 0 0 0 0 0 0 0 0 0 0 0 0 0 0.16 0"/>
<feBlend mode="normal" in2="BackgroundImageFix" result="effect1_dropShadow_1035_213"/>
<feBlend mode="normal" in="SourceGraphic" in2="effect1_dropShadow_1035_213" result="shape"/>
</filter>
<clipPath id="clip0_1035_213">
<rect width="32" height="32" fill="white" transform="translate(21 22)"/>
</clipPath>
</defs>
</svg>
