<svg width="79" height="79" viewBox="0 0 79 79" fill="none" xmlns="http://www.w3.org/2000/svg">
<g filter="url(#filter0_d_1033_59)">
<circle cx="37.5" cy="37.5" r="27.5" fill="#89B8A3"/>
</g>
<path d="M48.84 48.8739C48.5793 47.3213 47.3497 46.1125 45.8119 45.8725C45.1867 44.6636 43.9393 43.8932 42.5674 43.8932C41.8623 43.8932 41.1689 44.0976 40.5882 44.4769C40.3986 44.1243 40.1615 43.8013 39.8741 43.5139C39.1097 42.7406 38.0874 42.3169 36.9971 42.3169C36.2534 42.3169 35.5245 42.5213 34.8963 42.9036C34.6297 43.0665 34.3837 43.2562 34.1704 43.4636C33.8652 43.7569 33.6045 44.1036 33.4089 44.4769C32.8223 44.0976 32.1319 43.8902 31.4237 43.8902C30.0578 43.8902 28.8045 44.6636 28.1823 45.8695C26.6415 46.1124 25.4089 47.3184 25.1541 48.871C25.1126 49.108 25.1808 49.351 25.3408 49.5406C25.5037 49.7332 25.7467 49.8458 25.9986 49.8458H47.9926C48.2504 49.8458 48.4904 49.7332 48.6534 49.5406C48.8104 49.3539 48.8815 49.111 48.84 48.8739ZM29.5897 48.225C29.3852 48.225 29.1986 48.0384 29.1986 47.831C29.1986 47.6265 29.3852 47.4458 29.5897 47.4458C29.7971 47.4458 29.9808 47.6265 29.9808 47.831C29.9778 48.0384 29.7971 48.225 29.5897 48.225ZM32.2119 46.6843C32.0074 46.6843 31.8208 46.4976 31.8208 46.2902C31.8208 46.0858 32.0074 45.905 32.2119 45.905C32.4193 45.905 32.603 46.0858 32.603 46.2902C32.603 46.5006 32.4193 46.6843 32.2119 46.6843ZM33.5274 48.1836C33.323 48.1836 33.1363 47.9969 33.1363 47.7895C33.1363 47.585 33.323 47.4043 33.5274 47.4043C33.7348 47.4043 33.9186 47.585 33.9186 47.7895C33.9186 47.9969 33.7348 48.1836 33.5274 48.1836ZM36.2119 47.4606C36.0074 47.4606 35.8208 47.2739 35.8208 47.0665C35.8208 46.8621 36.0074 46.6813 36.2119 46.6813C36.4193 46.6813 36.603 46.8621 36.603 47.0665C36.6 47.2769 36.4193 47.4606 36.2119 47.4606ZM36.7778 45.3332C36.5734 45.3332 36.3867 45.1465 36.3867 44.9391C36.3867 44.7347 36.5734 44.5539 36.7778 44.5539C36.9852 44.5539 37.1689 44.7347 37.1689 44.9391C37.1689 45.1465 36.9882 45.3332 36.7778 45.3332ZM38.9082 48.6013C38.7037 48.6013 38.5171 48.4147 38.5171 48.2073C38.5171 48.0028 38.7037 47.8221 38.9082 47.8221C39.1156 47.8221 39.2993 48.0028 39.2993 48.2073C39.2993 48.4176 39.1156 48.6013 38.9082 48.6013ZM39.5837 46.8443C39.3793 46.8443 39.1926 46.6576 39.1926 46.4502C39.1926 46.2458 39.3793 46.065 39.5837 46.065C39.7911 46.065 39.9748 46.2458 39.9748 46.4502C39.9748 46.6606 39.7911 46.8443 39.5837 46.8443ZM42.6326 46.7199C42.4282 46.7199 42.2415 46.5332 42.2415 46.3258C42.2415 46.1213 42.4282 45.9406 42.6326 45.9406C42.84 45.9406 43.0237 46.1213 43.0237 46.3258C43.0208 46.5332 42.84 46.7199 42.6326 46.7199ZM44.9378 48.1836C44.7334 48.1836 44.5467 47.9969 44.5467 47.7895C44.5467 47.585 44.7334 47.4043 44.9378 47.4043C45.1452 47.4043 45.3289 47.585 45.3289 47.7895C45.3289 47.9969 45.1482 48.1836 44.9378 48.1836Z" fill="white"/>
<path d="M37.1185 34.5835V42.6872C37.1185 42.8946 36.9526 43.0576 36.7482 43.0576C36.5437 43.0576 36.3778 42.8946 36.3778 42.6872V34.5835C36.4993 34.5983 36.6237 34.6072 36.7482 34.6072C36.8726 34.6042 36.9941 34.5983 37.1185 34.5835Z" fill="white"/>
<path d="M37.1186 38.871C37.1186 38.9599 37.086 39.0518 37.0178 39.1229C36.9467 39.1999 36.846 39.2414 36.7452 39.2414C36.6563 39.2414 36.5645 39.2088 36.4934 39.1406C36.4549 39.1021 36.4163 39.0695 36.3749 39.0369C36.1171 38.8058 35.8475 38.5866 35.5719 38.3881C35.6904 38.1629 35.7763 37.9169 35.8238 37.6562C36.0104 37.7836 36.1912 37.9199 36.3749 38.0681C36.5852 38.231 36.7986 38.4088 37 38.5955C37.0771 38.6695 37.1186 38.7703 37.1186 38.871ZM45.5038 36.7969C44.8252 37.4162 44.3897 38.154 43.9689 38.8621C43.2963 40.0029 42.6623 41.0755 41.1897 41.1732C41.0445 41.1881 40.9082 41.1969 40.7689 41.1969C39.8741 41.1969 39.1304 40.8799 38.6475 40.2903C38.5467 40.1629 38.4578 40.0295 38.3867 39.8903C40.3778 38.5718 42.683 37.7451 42.7126 37.7392C42.9052 37.671 43.006 37.4606 42.9408 37.2681C42.8697 37.0725 42.6593 36.9718 42.4638 37.0369C42.3452 37.0814 40.1556 37.8577 38.1467 39.1584C38.0697 38.6962 38.1082 38.1925 38.2741 37.6799C38.4312 37.1881 38.6889 36.7584 39.0208 36.4266C40.2475 35.2088 42.3867 35.1229 45.3793 36.1747C45.5008 36.2162 45.5956 36.3229 45.6223 36.4503C45.646 36.5777 45.6015 36.7081 45.5038 36.7969ZM38.3867 39.8903C37.9363 40.1866 37.5067 40.5095 37.1156 40.8562C37.0741 40.8888 37.0326 40.9244 36.9971 40.9599C36.923 41.0221 36.8341 41.0577 36.7452 41.0577C36.6445 41.0577 36.5438 41.0162 36.4697 40.9392C36.4075 40.8681 36.3719 40.7792 36.3719 40.6873C36.3719 40.5866 36.4134 40.4858 36.4904 40.4118C36.686 40.231 36.8993 40.0562 37.1156 39.8844C37.4475 39.6266 37.7912 39.3866 38.1438 39.1584C38.1912 39.4162 38.2682 39.6621 38.3867 39.8903Z" fill="white"/>
<path d="M39.7408 31.606C39.7408 33.1319 38.5912 34.3971 37.1186 34.5837V30.5393C37.1186 30.3349 36.9526 30.1689 36.7482 30.1689C36.5438 30.1689 36.3778 30.3349 36.3778 30.5393V34.5808C34.8993 34.4 33.7497 33.1319 33.7497 31.603C33.7497 30.0741 36.1675 26.6756 36.446 26.2934C36.5823 26.1008 36.9082 26.1008 37.0475 26.2934C37.323 26.6786 39.7408 30.08 39.7408 31.606ZM30.763 35.5852C30.7038 35.7778 30.8104 35.9852 31.0089 36.0504C31.0386 36.0623 33.4623 36.8267 35.5719 38.3882C35.4978 38.5245 35.4119 38.6608 35.3112 38.7823C34.8015 39.4074 34.0104 39.7423 33.0564 39.7423C32.9082 39.7423 32.7541 39.7334 32.603 39.7156C31.0564 39.6178 30.3808 38.4741 29.6638 37.2623C29.2134 36.5008 28.7452 35.7126 28.0164 35.0489C27.9245 34.96 27.8801 34.8267 27.9038 34.6993C27.9304 34.5689 28.0223 34.4652 28.1467 34.4208C31.3319 33.3067 33.6075 33.3956 34.9171 34.6874C35.2667 35.0371 35.5364 35.4934 35.7052 36.0149C35.886 36.5867 35.9245 37.1467 35.8238 37.6563C33.6756 36.1186 31.3467 35.3778 31.2312 35.3423C31.0356 35.283 30.8252 35.3897 30.763 35.5852Z" fill="white"/>
<defs>
<filter id="filter0_d_1033_59" x="0" y="0" width="79" height="79" filterUnits="userSpaceOnUse" color-interpolation-filters="sRGB">
<feFlood flood-opacity="0" result="BackgroundImageFix"/>
<feColorMatrix in="SourceAlpha" type="matrix" values="0 0 0 0 0 0 0 0 0 0 0 0 0 0 0 0 0 0 127 0" result="hardAlpha"/>
<feOffset dx="2" dy="2"/>
<feGaussianBlur stdDeviation="6"/>
<feComposite in2="hardAlpha" operator="out"/>
<feColorMatrix type="matrix" values="0 0 0 0 0 0 0 0 0 0 0 0 0 0 0 0 0 0 0.16 0"/>
<feBlend mode="normal" in2="BackgroundImageFix" result="effect1_dropShadow_1033_59"/>
<feBlend mode="normal" in="SourceGraphic" in2="effect1_dropShadow_1033_59" result="shape"/>
</filter>
</defs>
</svg>
