<svg width="79" height="79" viewBox="0 0 79 79" fill="none" xmlns="http://www.w3.org/2000/svg">
<g filter="url(#filter0_d_1034_93)">
<circle cx="37.5" cy="37.5" r="27.5" fill="#89B8A3"/>
</g>
<path d="M45.8471 40.9177H27.7294C27.4941 40.9177 27.2589 41.153 27.2589 41.3883V44.5883C27.2589 44.8236 27.4941 45.0589 27.7294 45.0589H45.8471C46.0824 45.0589 46.3177 44.8236 46.3177 44.5883V41.3883C46.3177 41.153 46.1294 40.9177 45.8471 40.9177ZM29.8941 53.153C29.9412 53.3883 30.1294 53.5294 30.3647 53.5294H35.7294C35.9177 53.5294 36.0589 53.4353 36.153 53.2941C36.2941 53.0589 36.6236 52.6824 36.8118 52.6824C36.9059 52.6824 37.0941 52.8236 37.2824 53.2471C37.3765 53.4353 37.5177 53.5294 37.7059 53.5294H43.353C43.5883 53.5294 43.7765 53.3883 43.8236 53.153L45.2353 46H28.3412L29.8941 53.153ZM37.3294 24.2589C37.1412 24.3059 37.0471 24.4471 37 24.6353C37 24.8236 36.153 29.2941 38.0353 31.553C38.7412 32.4 39.7294 32.8706 41 32.8706H41.0941C41.1412 32.8706 41.1883 32.8706 41.2824 32.8706C41.8 32.8706 43.5412 32.7294 44.7177 31.3177C45.8471 29.9059 46.0824 27.6471 45.4236 24.6353C45.3765 24.4471 45.2353 24.3059 45.0941 24.2589C44.9059 24.2118 44.7177 24.2589 44.6236 24.4L43.1177 26.1883L41.6589 24.3059C41.5647 24.1647 41.4236 24.1177 41.2824 24.1177C41.1412 24.1177 41 24.2118 40.9059 24.3059L39.6353 26.1883L37.8 24.353C37.7059 24.2589 37.5177 24.2118 37.3294 24.2589ZM41.4236 30.4236C43.0236 30.4236 43.2118 28.5412 43.2118 28.4471C43.2118 28.1647 43.4471 27.9765 43.7294 28.0236C43.9647 28.0236 44.2 28.2589 44.153 28.5412C44.0588 29.5294 43.353 31.3647 41.4236 31.3647H41.3765C41.1412 31.3647 40.9059 31.1294 40.9059 30.8941C40.953 30.6118 41.1883 30.4236 41.4236 30.4236Z" fill="white"/>
<path d="M31.3059 39.9766C29.7059 37.6236 28.2 34.0942 28.1059 33.906C28.0118 33.6707 28.1059 33.3884 28.3412 33.2942C28.5765 33.2001 28.8588 33.2942 28.9529 33.5295C29.5647 34.8942 31.0706 38.1884 32.4353 39.9766H34.0824C35.0235 38.9413 35.5882 37.7178 35.5882 37.7178C35.6824 37.4825 35.9647 37.3884 36.2 37.4825C36.4353 37.5766 36.5294 37.8589 36.4353 38.0942C36.3882 38.1413 36.0118 38.9883 35.3059 39.9295H39.3529C37.8471 37.8589 36.9059 34.9883 36.8588 34.8472C36.7647 34.6119 36.9059 34.3295 37.1412 34.2354C37.3765 34.1413 37.6588 34.2825 37.7529 34.5178C37.7529 34.5648 38.9294 37.9531 40.5765 39.8825H42.0353C43.9177 37.8119 44.9059 34.4236 44.9529 34.3766C45 34.1413 45.2824 34.0001 45.5177 34.0472C45.7529 34.1413 45.8941 34.3766 45.8471 34.6119C45.8 34.7531 44.9529 37.6236 43.3059 39.8354C44.5765 39.8354 44.8118 39.8354 45.9412 39.8354C47.7765 37.9531 47.8706 34.8001 47.3059 32.2119C47.1647 31.6001 46.6 31.1766 45.7529 31.4119C45 32.4942 44.0118 33.1531 42.7882 33.4354C42.4118 34.0001 42.0824 34.5648 41.8471 35.2236V33.7648C41.5177 33.8119 41.0471 33.8119 40.9059 33.7648V35.3178C40.6706 34.706 40.3882 34.1413 40.0118 33.6707C38.7412 33.4354 37.6588 32.7295 36.9529 31.506C36.1059 31.2707 35.5882 31.6942 35.4 32.4472C34.7412 33.2001 34.2706 34.0942 33.9412 35.0354V32.0707C34.6471 32.0236 35.7294 31.7884 36.6706 30.9884C35.4941 28.4942 35.9647 25.1531 36.1059 24.4001C36.2941 23.4119 37.3294 22.9884 38.1294 23.3648C38.0824 23.2236 38.0824 23.0825 38.0353 22.9413C37.9882 22.7531 37.8471 22.6119 37.7059 22.5648C37.5647 22.5178 37.3294 22.5648 37.2353 22.706L35.4471 24.8236L33.8 22.6589C33.7059 22.5178 33.5647 22.4707 33.4235 22.4707C33.2824 22.4707 33.1412 22.5648 33.0471 22.6589L31.5882 24.8236L29.5177 22.7531C29.3765 22.6119 29.2353 22.5648 29.0471 22.6119C28.9059 22.6589 28.7647 22.8001 28.7177 22.9884C28.6706 23.1766 27.7765 28.1648 29.8941 30.706C30.6471 31.6001 31.6824 32.0707 32.9529 32.1178V35.2707C32.1059 32.9178 30.5059 30.7531 27.3059 30.5178C27.0706 30.5178 26.8824 30.6589 26.8353 30.8942C26.8353 30.9413 25.4235 36.5413 28.4353 39.9295H31.3059V39.9766ZM30.1294 27.1766C30.1294 26.9413 30.3177 26.706 30.5529 26.6589C30.8353 26.6589 31.0235 26.8472 31.0706 27.0825C31.0706 27.2236 31.3529 29.7648 33.5177 29.7648H33.5647C33.8 29.7648 34.0353 29.9531 34.0353 30.2354C34.0353 30.5178 33.8471 30.706 33.5647 30.706H33.5177C31.1177 30.706 30.2706 28.4001 30.1294 27.1766Z" fill="white"/>
<defs>
<filter id="filter0_d_1034_93" x="0" y="0" width="79" height="79" filterUnits="userSpaceOnUse" color-interpolation-filters="sRGB">
<feFlood flood-opacity="0" result="BackgroundImageFix"/>
<feColorMatrix in="SourceAlpha" type="matrix" values="0 0 0 0 0 0 0 0 0 0 0 0 0 0 0 0 0 0 127 0" result="hardAlpha"/>
<feOffset dx="2" dy="2"/>
<feGaussianBlur stdDeviation="6"/>
<feComposite in2="hardAlpha" operator="out"/>
<feColorMatrix type="matrix" values="0 0 0 0 0 0 0 0 0 0 0 0 0 0 0 0 0 0 0.16 0"/>
<feBlend mode="normal" in2="BackgroundImageFix" result="effect1_dropShadow_1034_93"/>
<feBlend mode="normal" in="SourceGraphic" in2="effect1_dropShadow_1034_93" result="shape"/>
</filter>
</defs>
</svg>
