<svg width="79" height="79" viewBox="0 0 79 79" fill="none" xmlns="http://www.w3.org/2000/svg">
<g filter="url(#filter0_d_1034_103)">
<circle cx="37.5" cy="37.5" r="27.5" fill="#89B8A3"/>
</g>
<path d="M45.925 33.9501C45.075 35.4751 44.0688 37.8063 43.6188 40.7563C43.3875 39.9751 43.1125 39.1313 42.8063 38.2688C43.775 36.4001 44.8188 34.9563 45.925 33.9501ZM42.525 31.5813C42.1313 32.3876 41.6938 33.4126 41.2875 34.6313C41.1438 34.3376 41 34.0563 40.85 33.7876C41.3875 32.9188 41.95 32.1813 42.525 31.5813ZM32.2813 31.5688C32.6875 31.9876 33.0813 32.4751 33.4688 33.0251C33.3375 33.1376 33.2063 33.2563 33.075 33.3813C32.8063 32.6938 32.5375 32.0876 32.2813 31.5688ZM27.3875 33.9438C28.3375 34.8001 29.2375 35.9876 30.0813 37.4813C29.8188 37.9751 29.5688 38.4751 29.3375 38.9751C28.8188 36.8626 28.05 35.1501 27.3875 33.9438ZM26.2563 46.7188C26.9813 42.3063 25.4063 38.8501 24.0813 36.8313C25.875 38.1938 27.2125 40.2626 28.1125 42.0188C27.3688 44.1313 26.9313 45.9376 26.7563 46.7188H26.2563ZM30.6563 46.7188H29.1563H27.7813C28.2875 44.5876 30.2313 37.3063 33.9125 33.9626C32.55 36.4126 30.7625 40.9063 31.575 46.7188H30.6563ZM32.5875 46.7188C32.3875 45.3438 32.3438 44.0376 32.4125 42.8188C32.9813 44.5001 33.35 45.9438 33.5313 46.7188H32.5875ZM33.9188 44.2626C33.6063 43.2001 33.1938 41.9313 32.6625 40.5938C32.8375 39.5813 33.0813 38.6501 33.3563 37.8001C33.8063 39.9251 34 42.0813 33.9188 44.2626ZM34.7313 46.7188C35.1688 43.1251 34.9188 39.5751 33.9875 36.1438C34.1875 35.6751 34.3938 35.2438 34.5938 34.8626C35.4188 36.3813 36.1875 38.2251 36.8875 40.3438C35.9688 43.2001 35.4375 45.7501 35.25 46.7188H34.7313ZM39.4188 44.2563C39.3875 45.0626 39.3125 45.8876 39.2125 46.7188H39.1563H36.2625C36.475 45.6376 37.0063 43.1938 37.8813 40.4938C38.2 39.5126 38.5375 38.5876 38.8938 37.7126C38.9875 38.1813 39.0688 38.6563 39.1375 39.1313C39.3875 40.8001 39.4813 42.5251 39.4188 44.2563ZM40.6563 46.7188H40.225C40.325 45.9001 40.3876 45.0876 40.4188 44.2938C40.4876 42.5001 40.3875 40.7126 40.1313 38.9876C39.9875 37.9813 39.7813 36.9813 39.5313 36.0126C39.5313 36.0001 39.525 35.9876 39.525 35.9751C39 33.9313 38.3313 32.2876 37.7688 31.1001C38.4813 31.8563 39.1688 32.8251 39.8313 34.0126C40.2 34.6688 40.5625 35.4001 40.9063 36.1876C40.9125 36.2001 40.9126 36.2126 40.9188 36.2251V36.2313C41.2251 36.9188 41.5188 37.6501 41.7938 38.4063C42.5126 40.4063 43.0438 42.3126 43.3625 43.6063C42.7938 44.9938 42.4375 46.1438 42.275 46.7188H40.6563ZM47.0563 46.7188H44.6563H44.1563H43.3188C43.875 44.8813 45.7563 39.4563 49.2375 36.8251C47.9063 38.8376 46.3313 42.3001 47.0563 46.7188Z" fill="white"/>
<defs>
<filter id="filter0_d_1034_103" x="0" y="0" width="79" height="79" filterUnits="userSpaceOnUse" color-interpolation-filters="sRGB">
<feFlood flood-opacity="0" result="BackgroundImageFix"/>
<feColorMatrix in="SourceAlpha" type="matrix" values="0 0 0 0 0 0 0 0 0 0 0 0 0 0 0 0 0 0 127 0" result="hardAlpha"/>
<feOffset dx="2" dy="2"/>
<feGaussianBlur stdDeviation="6"/>
<feComposite in2="hardAlpha" operator="out"/>
<feColorMatrix type="matrix" values="0 0 0 0 0 0 0 0 0 0 0 0 0 0 0 0 0 0 0.16 0"/>
<feBlend mode="normal" in2="BackgroundImageFix" result="effect1_dropShadow_1034_103"/>
<feBlend mode="normal" in="SourceGraphic" in2="effect1_dropShadow_1034_103" result="shape"/>
</filter>
</defs>
</svg>
