<svg width="79" height="79" viewBox="0 0 79 79" fill="none" xmlns="http://www.w3.org/2000/svg">
<g filter="url(#filter0_d_1033_84)">
<circle cx="37.5" cy="37.5" r="27.5" fill="#89B8A3"/>
</g>
<path d="M44.2185 30.4683C45.0185 29.7298 45.4185 28.376 45.0308 27.3483C44.6369 26.2837 43.4431 25.7175 42.4462 25.6991C42.4154 25.1883 42.1877 24.6714 41.7877 24.2283C41.3262 23.7175 40.6985 23.3606 40.0708 23.256C39 23.0775 37.7077 23.8406 37.1292 24.8314C36.8031 24.7145 36.4462 24.6529 36.0769 24.6529C35.2523 24.6529 34.4892 24.9729 34.0462 25.5145C33.3446 26.3637 33.2892 27.7729 33.8062 28.7268C33.4985 29.0037 33.2462 29.3729 33.0738 29.8098C32.7908 30.5052 32.76 31.256 32.9877 31.8591C33.3877 32.936 34.8523 33.6929 35.96 33.7298C36.0092 34.1114 36.1446 34.4868 36.3477 34.8191C36.3994 34.9028 36.464 34.9729 36.5231 35.0486C36.2523 35.3981 35.944 35.9618 35.68 36.8492C35.4646 36.5621 35.2112 36.3056 34.9268 36.0868C34.6745 35.896 34.3852 35.7237 34.0468 35.5575C33.7391 35.4098 32.9945 35.0098 32.5883 34.4068C32.5282 34.3137 32.4435 34.2391 32.3435 34.1913C32.2436 34.1435 32.1323 34.1243 32.0222 34.136C31.7945 34.1545 31.5975 34.3021 31.5114 34.5114C31.4868 34.5729 30.8898 36.0375 31.4498 37.4714C31.9298 38.696 33.2037 39.5145 34.6191 39.5145C34.6868 39.5145 34.7483 39.5145 34.816 39.5083C34.9508 39.5015 35.0788 39.4837 35.2037 39.4609C35.1292 40.2338 35.0929 41.1391 35.0972 42.1668H29.4308C29.2523 42.1668 29.08 42.2468 28.9631 42.3883C28.8462 42.5237 28.7969 42.7083 28.8277 42.8868L30.5015 52.2652C30.5569 52.5545 30.8092 52.7698 31.1046 52.7698H40.3231C40.6185 52.7698 40.8769 52.5545 40.9262 52.2652L42.6 42.8868C42.618 42.7993 42.6158 42.7089 42.5934 42.6225C42.571 42.5361 42.529 42.456 42.4708 42.3883C42.4131 42.3186 42.3407 42.2625 42.2588 42.2242C42.1768 42.1859 42.0874 42.1663 41.9969 42.1668H36.3262C36.3058 37.9286 37.1052 36.3329 37.4942 35.8141C37.6425 35.8745 37.7957 35.92 37.9538 35.9452C38.0954 35.9698 38.2431 35.9821 38.3908 35.9821C39.4246 35.9821 40.5938 35.3975 40.9938 34.4068C41.2892 34.4991 41.6154 34.5545 41.9415 34.5545C42.7723 34.5545 43.5292 34.2283 43.9723 33.6929C44.4092 33.1637 44.6246 32.3698 44.5446 31.576C44.5077 31.1637 44.3908 30.7821 44.2185 30.4683ZM40.7415 31.0345C40.36 31.496 39.8246 31.7791 39.2277 31.8406C39.1538 31.8468 39.08 31.8468 39.0062 31.8468C38.4515 31.8492 37.916 31.6441 37.5049 31.2717C37.0938 30.8994 36.8368 30.3867 36.7846 29.8345C36.6615 28.6037 37.5662 27.5083 38.7908 27.3852C39.0835 27.356 39.3791 27.385 39.6605 27.4705C39.942 27.556 40.2038 27.6962 40.4308 27.8832C40.6579 28.0703 40.8457 28.3003 40.9835 28.5602C41.1214 28.8201 41.2064 29.1047 41.2338 29.3975C41.2954 29.9883 41.1169 30.5729 40.7415 31.0345Z" fill="white"/>
<defs>
<filter id="filter0_d_1033_84" x="0" y="0" width="79" height="79" filterUnits="userSpaceOnUse" color-interpolation-filters="sRGB">
<feFlood flood-opacity="0" result="BackgroundImageFix"/>
<feColorMatrix in="SourceAlpha" type="matrix" values="0 0 0 0 0 0 0 0 0 0 0 0 0 0 0 0 0 0 127 0" result="hardAlpha"/>
<feOffset dx="2" dy="2"/>
<feGaussianBlur stdDeviation="6"/>
<feComposite in2="hardAlpha" operator="out"/>
<feColorMatrix type="matrix" values="0 0 0 0 0 0 0 0 0 0 0 0 0 0 0 0 0 0 0.16 0"/>
<feBlend mode="normal" in2="BackgroundImageFix" result="effect1_dropShadow_1033_84"/>
<feBlend mode="normal" in="SourceGraphic" in2="effect1_dropShadow_1033_84" result="shape"/>
</filter>
</defs>
</svg>
