<svg width="79" height="79" viewBox="0 0 79 79" fill="none" xmlns="http://www.w3.org/2000/svg">
<g filter="url(#filter0_d_1034_113)">
<circle cx="37.5" cy="37.5" r="27.5" fill="#89B8A3"/>
</g>
<path d="M52.4667 47.0667C51.0606 49.6849 48.297 51.1879 45.2425 49.8304C43.2546 48.9576 41.1212 49.2485 39.1334 50.1213C39.9091 49.394 39.5697 47.9879 46.1152 44.3516C46.5031 44.4 46.8909 44.5455 47.2788 44.691C50.7212 46.2425 52.1273 46.3879 52.1273 46.3879C52.2728 46.3879 52.4182 46.4849 52.5152 46.6304C52.5152 46.7758 52.5152 46.9213 52.4667 47.0667Z" fill="white"/>
<path d="M41.897 39.7453C43.3515 34.9938 44.3212 29.0786 43.1091 27.2847C42.7212 26.7029 42.0424 26.5089 41.3151 26.7514C39.9576 27.2362 38.8909 28.3998 38.0667 30.1453C37.7273 28.4968 36.7091 24.6665 35.0606 24.6665C34.6242 24.6665 34.2364 24.8604 33.9939 25.2483C32.4424 27.6241 33.703 30.8241 33.8485 35.0423C29.9697 31.3574 30.6 31.1635 30.0667 31.212C29.8242 31.2604 29.6788 31.4059 29.6303 31.6483C29.5818 31.8907 28.903 37.2241 31.3757 42.2665C30.0182 41.4907 28.6121 41.0544 27.1576 41.0059C26.1879 41.0059 24.8303 41.0544 24.5879 42.0726C24.3454 43.1392 25.7515 44.4968 27.1091 45.418C23.5212 45.7574 21.6788 48.0362 21.5818 48.1817C21.4848 48.3271 21.4364 48.4726 21.4848 48.618C21.5333 48.7635 21.6788 48.9089 21.8242 48.9089C21.8242 48.9089 24.0061 49.4907 25.4121 50.218C26.6727 50.8968 28.5151 50.1695 29.7273 49.4423C32.0545 48.618 35.5454 50.4604 36.5151 51.2847C36.6121 51.3332 36.7091 51.3817 36.8061 51.3817C36.8545 51.3817 36.8545 51.3817 36.903 51.3817C37.0485 51.3332 37.1454 51.2847 37.2424 51.1877L38.7939 48.9574C42.5757 43.6726 48.103 43.721 49.2667 40.0847C50.1394 37.418 46.4545 34.7029 41.897 39.7453ZM43.8848 41.8786C42.5273 44.3514 38.1636 45.1271 37.3394 45.2241C34.8667 47.1635 32.297 47.0665 30.9394 46.1938C30.697 46.0483 30.6485 45.7574 30.7939 45.515C30.9394 45.2726 31.2303 45.2241 31.4727 45.3695C31.5697 45.418 33.6061 46.6786 36.4182 44.7392C33.9939 42.218 33.2182 38.7756 33.1697 38.6301C33.1212 38.3877 33.2667 38.0968 33.5576 38.0483C33.8 37.9998 34.0909 38.1453 34.1394 38.4362C34.1394 38.4847 34.8182 41.4423 36.8061 43.721C37 41.8301 37.5818 39.6968 38.1636 37.9998C36.4182 35.915 36.1273 33.3453 36.1273 33.2483C36.0788 33.0059 36.3212 32.7635 36.5636 32.715C36.8061 32.6665 37.0485 32.9089 37.097 33.1514C37.097 33.1514 37.2909 35.1877 38.5515 36.9332C39.0848 35.4301 39.5697 34.412 39.6182 34.315C39.7151 34.0726 40.0061 33.9756 40.2485 34.0726C40.4909 34.1695 40.5879 34.4604 40.4909 34.7029C39.3758 37.1756 37.9697 41.4423 37.7757 44.3029C39.0848 44.0604 42.1879 43.3332 43.1576 41.5392C43.303 41.2968 43.5939 41.1998 43.8364 41.3453C43.9333 41.3453 44.0303 41.6847 43.8848 41.8786Z" fill="white"/>
<defs>
<filter id="filter0_d_1034_113" x="0" y="0" width="79" height="79" filterUnits="userSpaceOnUse" color-interpolation-filters="sRGB">
<feFlood flood-opacity="0" result="BackgroundImageFix"/>
<feColorMatrix in="SourceAlpha" type="matrix" values="0 0 0 0 0 0 0 0 0 0 0 0 0 0 0 0 0 0 127 0" result="hardAlpha"/>
<feOffset dx="2" dy="2"/>
<feGaussianBlur stdDeviation="6"/>
<feComposite in2="hardAlpha" operator="out"/>
<feColorMatrix type="matrix" values="0 0 0 0 0 0 0 0 0 0 0 0 0 0 0 0 0 0 0.16 0"/>
<feBlend mode="normal" in2="BackgroundImageFix" result="effect1_dropShadow_1034_113"/>
<feBlend mode="normal" in="SourceGraphic" in2="effect1_dropShadow_1034_113" result="shape"/>
</filter>
</defs>
</svg>
