<svg width="79" height="79" viewBox="0 0 79 79" fill="none" xmlns="http://www.w3.org/2000/svg">
<g filter="url(#filter0_d_1033_73)">
<circle cx="37.5" cy="37.5" r="27.5" fill="#89B8A3"/>
</g>
<path d="M49.85 31.08C48.9823 30.1101 47.9291 29.3238 46.7527 28.7673C45.5762 28.2109 44.3003 27.8956 43 27.84C44.0229 27.4064 45.1192 27.1722 46.23 27.15C46.4506 27.1601 46.6683 27.0969 46.8492 26.9703C47.0301 26.8437 47.164 26.6607 47.23 26.45C47.2968 26.2424 47.2939 26.0186 47.2216 25.8128C47.1494 25.607 47.0119 25.4304 46.83 25.31C43.12 22.84 38.45 24.45 37 25.05C35.55 24.45 30.88 22.84 27.15 25.31C26.9702 25.4299 26.8341 25.6047 26.7619 25.8085C26.6898 26.0122 26.6857 26.2337 26.75 26.44C26.816 26.6507 26.9499 26.8337 27.1308 26.9603C27.3117 27.0869 27.5294 27.1501 27.75 27.14C28.868 27.1647 29.971 27.4023 31 27.84C29.6998 27.8956 28.4238 28.2109 27.2474 28.7673C26.0709 29.3238 25.0178 30.1101 24.15 31.08C24.0197 31.2381 23.9411 31.4324 23.9248 31.6367C23.9086 31.8409 23.9554 32.0452 24.0591 32.2219C24.1627 32.3986 24.3181 32.5393 24.5043 32.6248C24.6905 32.7103 24.8984 32.7366 25.1 32.7C26.9126 32.3882 28.7514 32.2543 30.59 32.3C28.9509 33.4917 27.643 35.0818 26.79 36.92C26.7069 37.1278 26.6959 37.3575 26.7588 37.5723C26.8216 37.7871 26.9548 37.9746 27.1368 38.1048C27.3188 38.235 27.5393 38.3003 27.7629 38.2904C27.9864 38.2805 28.2002 38.1958 28.37 38.05C30.1509 36.7729 32.3111 36.1351 34.5 36.24L33.67 50H31C30.7348 50 30.4805 50.1054 30.2929 50.2929C30.1054 50.4805 30 50.7348 30 51C30 51.2652 30.1054 51.5196 30.2929 51.7071C30.4805 51.8947 30.7348 52 31 52H43C43.2652 52 43.5196 51.8947 43.7071 51.7071C43.8947 51.5196 44 51.2652 44 51C44 50.7348 43.8947 50.4805 43.7071 50.2929C43.5196 50.1054 43.2652 50 43 50H40.33L39.51 36.23C41.6909 36.1157 43.8468 36.7393 45.63 38C45.799 38.1514 46.0144 38.2407 46.2409 38.2535C46.4674 38.2662 46.6915 38.2016 46.8764 38.0702C47.0613 37.9388 47.1961 37.7484 47.2585 37.5303C47.3209 37.3122 47.3074 37.0794 47.22 36.87C46.367 35.0318 45.0591 33.4417 43.42 32.25C45.2587 32.2036 47.0975 32.3376 48.91 32.65C49.1116 32.6866 49.3196 32.6603 49.5057 32.5748C49.6919 32.4893 49.8473 32.3486 49.951 32.1719C50.0546 31.9952 50.1015 31.7909 50.0852 31.5867C50.0689 31.3824 49.9903 31.1881 49.86 31.03L49.85 31.08ZM36 44.64C36.6636 44.5495 37.3364 44.5495 38 44.64L38.11 46.47C37.3694 46.3809 36.6207 46.3809 35.88 46.47L36 44.64ZM36.25 40.46H36.33C36.7746 40.3612 37.2355 40.3612 37.68 40.46H37.76L37.89 42.6C37.3013 42.5451 36.7088 42.5451 36.12 42.6L36.25 40.46ZM36.37 38.46L36.49 36.46H36.84C36.9493 36.4783 37.0608 36.4783 37.17 36.46H37.52L37.64 38.46C37.2162 38.3975 36.7863 38.3875 36.36 38.43L36.37 38.46ZM37.93 50H35.67L35.76 48.5C36.5807 48.3588 37.4194 48.3588 38.24 48.5L38.33 50H37.93ZM40.42 30.77C40.2317 30.8297 40.0652 30.9439 39.9417 31.0982C39.8182 31.2524 39.7431 31.4398 39.726 31.6366C39.7089 31.8335 39.7505 32.031 39.8455 32.2043C39.9406 32.3775 40.0848 32.5187 40.26 32.61C41.3033 33.1938 42.2762 33.895 43.16 34.7C41.83 34.347 40.4552 34.192 39.08 34.24C38.9015 34.0873 38.6749 34.0024 38.44 34H35.57C35.3351 34.0024 35.1086 34.0873 34.93 34.24C33.5553 34.1888 32.1805 34.3404 30.85 34.69C31.7339 33.8852 32.7069 33.1839 33.75 32.6C33.9253 32.5087 34.0695 32.3675 34.1645 32.1943C34.2596 32.021 34.3012 31.8235 34.284 31.6266C34.2669 31.4298 34.1919 31.2424 34.0684 31.0882C33.9448 30.9339 33.7784 30.8197 33.59 30.76C32.3373 30.4113 31.04 30.2495 29.74 30.28H28.8C30.4864 29.7824 32.2612 29.6595 34 29.92C34.2109 29.9803 34.4358 29.9695 34.6399 29.8895C34.8441 29.8094 35.0163 29.6644 35.13 29.4768C35.2437 29.2892 35.2925 29.0695 35.269 28.8515C35.2455 28.6334 35.151 28.4291 35 28.27C34.0931 27.2788 32.9758 26.5031 31.73 26C33.3932 25.982 35.0407 26.3231 36.56 27C36.697 27.0671 36.8475 27.102 37 27.102C37.1526 27.102 37.3031 27.0671 37.44 27C38.9615 26.3299 40.6075 25.9891 42.27 26C41.0243 26.5031 39.9069 27.2788 39 28.27C38.8618 28.4246 38.7751 28.6183 38.7518 28.8243C38.7285 29.0303 38.7698 29.2385 38.87 29.42C38.9711 29.6024 39.1266 29.7487 39.3149 29.8384C39.5031 29.928 39.7147 29.9566 39.92 29.92C41.6741 29.6633 43.4633 29.7965 45.16 30.31C43.5656 30.2074 41.965 30.3627 40.42 30.77Z" fill="white"/>
<defs>
<filter id="filter0_d_1033_73" x="0" y="0" width="79" height="79" filterUnits="userSpaceOnUse" color-interpolation-filters="sRGB">
<feFlood flood-opacity="0" result="BackgroundImageFix"/>
<feColorMatrix in="SourceAlpha" type="matrix" values="0 0 0 0 0 0 0 0 0 0 0 0 0 0 0 0 0 0 127 0" result="hardAlpha"/>
<feOffset dx="2" dy="2"/>
<feGaussianBlur stdDeviation="6"/>
<feComposite in2="hardAlpha" operator="out"/>
<feColorMatrix type="matrix" values="0 0 0 0 0 0 0 0 0 0 0 0 0 0 0 0 0 0 0.16 0"/>
<feBlend mode="normal" in2="BackgroundImageFix" result="effect1_dropShadow_1033_73"/>
<feBlend mode="normal" in="SourceGraphic" in2="effect1_dropShadow_1033_73" result="shape"/>
</filter>
</defs>
</svg>
